# xmcd
#
# Track frame offsets: 
#        150
#        16685
#        36512
#        49137
#        68292
#        80125
#        91670
#        103685
#        123312
#        137037
#        148725
#        162157
#        185982
#
# Disc length: 2643 seconds
#
# Revision: 0
# Processed by: cddbd v1.5.1PL2 Copyright (c) Steve Scherf et al.
# Submitted via: ExactAudioCopy v0.90b4
#
DISCID=af0a510d
DTITLE=Various Artist - Northgate Noise - Vol. 2
DYEAR=2001
DGENRE=Country
TTITLE0=The Charlie Daniels Band - Drinkin' My Babv Goodbye
TTITLE1=Charlie Robison - My Hometown
TTITLE2=Vern Gosdin - I Can Tell By The Way You Dance
TTITLE3=Merle Haggard - Are The Good Times Really Over
TTITLE4=Johnny Cash - Ring Of Fire
TTITLE5=Johnny Horton - The Battle Of New Orleans
TTITLE6=Larry Gatlin and The Gatlin Brothers - All The Gold In Californi
TTITLE6=a
TTITLE7=Marty Robbins - El Paso
TTITLE8=Jimmy Dean - Big Bad John
TTITLE9=Moe Bandy and Joe Stampley - Just Good Ol' Boys
TTITLE10=Mickey Gilley - Don't The Girls All Get Prettier At Closing T
TTITLE10=ime
TTITLE11=David Allan Coe - You Never Even Called Me By My Name
TTITLE12=Willie Nelson - Whiskey River
EXTD=
EXTT0=
EXTT1=
EXTT2=
EXTT3=
EXTT4=
EXTT5=
EXTT6=
EXTT7=
EXTT8=
EXTT9=
EXTT10=
EXTT11=
EXTT12=
PLAYORDER=
